<?xml version="1.0" standalone="no"?>
<!DOCTYPE svg PUBLIC "-//W3C//DTD SVG 20010904//EN"
 "http://www.w3.org/TR/2001/REC-SVG-20010904/DTD/svg10.dtd">
<svg version="1.0" xmlns="http://www.w3.org/2000/svg"
 width="700.000000pt" height="700.000000pt" viewBox="0 0 700.000000 700.000000"
 preserveAspectRatio="xMidYMid meet">
<metadata>
Created by potrace 1.14, written by Peter Selinger 2001-2017
</metadata>
<g transform="translate(0.000000,700.000000) scale(0.100000,-0.100000)"
fill="#000000" stroke="none">
<path d="M956 5825 c-160 -26 -318 -173 -360 -333 -10 -39 -12 -455 -11 -2008
l1 -1959 23 -58 c59 -150 211 -276 356 -294 71 -9 4718 -8 4758 1 15 3 39 8
53 11 82 17 170 77 224 153 51 70 55 86 225 747 36 143 79 310 95 370 48 185
129 499 185 715 149 581 199 773 221 855 14 50 27 99 29 111 3 12 22 88 44
170 21 82 42 164 46 182 l7 32 -2545 0 -2544 0 -83 -327 c-45 -181 -116 -458
-157 -618 -40 -159 -75 -297 -78 -305 -2 -8 -51 -202 -110 -430 -58 -228 -107
-422 -109 -430 -2 -8 -36 -141 -75 -296 -39 -154 -74 -289 -76 -300 -2 -10
-15 -59 -29 -109 l-24 -90 -1 1890 -1 1890 930 0 930 0 219 -219 219 -219
1541 0 c896 0 1546 4 1551 9 11 11 -4 96 -27 149 -51 120 -193 243 -313 271
-19 4 -603 8 -1298 9 l-1262 1 -220 219 -219 218 -1026 1 c-648 1 -1050 -3
-1089 -9z m5299 -1747 c3 -3 -38 -180 -90 -394 -53 -214 -129 -524 -170 -689
-41 -165 -99 -401 -130 -525 -31 -124 -58 -232 -60 -240 -2 -8 -13 -53 -25
-100 -12 -47 -24 -96 -27 -110 -3 -21 -64 -265 -93 -380 l-9 -35 -2086 0
c-1147 0 -2085 2 -2085 5 0 3 7 30 16 60 8 30 17 64 19 75 3 12 38 156 79 320
41 165 100 404 130 530 31 127 62 253 70 280 8 28 78 311 157 630 l142 580
2078 -1 c1143 0 2081 -3 2084 -6z"/>
</g>
</svg>
